<?xml version="1.0" encoding="UTF-8" standalone="no"?>
<!-- Created with Inkscape (http://www.inkscape.org/) -->

<svg
   version="1.1"
   id="svg1"
   width="1024"
   height="1024"
   viewBox="0 0 1024 1024"
   sodipodi:docname="applicacion.svg"
   inkscape:version="1.4.2 (ebf0e940, 2025-05-08)"
   xmlns:inkscape="http://www.inkscape.org/namespaces/inkscape"
   xmlns:sodipodi="http://sodipodi.sourceforge.net/DTD/sodipodi-0.dtd"
   xmlns="http://www.w3.org/2000/svg"
   xmlns:svg="http://www.w3.org/2000/svg">
  <defs
     id="defs1" />
  <sodipodi:namedview
     id="namedview1"
     pagecolor="#ffffff"
     bordercolor="#000000"
     borderopacity="0.25"
     inkscape:showpageshadow="2"
     inkscape:pageopacity="0.0"
     inkscape:pagecheckerboard="0"
     inkscape:deskcolor="#d1d1d1"
     inkscape:zoom="0.79199219"
     inkscape:cx="522.73243"
     inkscape:cy="529.67694"
     inkscape:window-width="1360"
     inkscape:window-height="960"
     inkscape:window-x="93"
     inkscape:window-y="25"
     inkscape:window-maximized="0"
     inkscape:current-layer="g1" />
  <g
     inkscape:groupmode="layer"
     inkscape:label="Image"
     id="g1">
    <g
       id="g2"
       transform="translate(17.676942,29.040696)">
      <path
         style="fill:#fd99c1"
         d="m 194.46903,636.63327 c -4.84417,-1.39917 -7.30813,-2.57541 -13.36843,-6.38179 l -3.87412,-2.43328 18.12412,-18.22052 18.12412,-18.22052 v -15.2655 -15.26551 l -2.92307,-2.92307 c -1.995,-1.995 -3.92443,-2.92308 -6.07693,-2.92308 -2.15249,0 -4.08192,0.92808 -6.07692,2.92308 -2.88704,2.88704 -2.92308,3.06287 -2.92308,14.26172 v 11.33864 l -15.75,15.72447 -15.75,15.72447 -15.09988,-14.73619 c -12.31604,-12.01939 -15.31193,-15.49503 -16.25,-18.85221 -1.66178,-5.94715 -1.47491,-11.04537 0.43167,-11.77699 C 133.92649,569.27314 140.12338,569 146.82736,569 h 12.18906 l 8.69132,-8.75 8.69133,-8.75 -6.12047,-6.31422 -6.12047,-6.31422 -6.0917,6.00989 c -3.35044,3.30544 -7.3585,6.48434 -8.90681,7.06422 -1.5483,0.57988 -6.85373,1.05433 -11.78984,1.05433 -10.18772,0 -14.7669,-1.68211 -19.32466,-7.09871 -5.67305,-6.74203 -9.5704,-17.71708 -9.5704,-26.95051 V 515 h 27.06951 27.06952 l 6.47091,-5.75 6.47091,-5.75 -0.29043,-18.3387 -0.29042,-18.3387 -2.80576,-2.4113 c -3.88095,-3.33532 -8.10784,-3.15155 -11.77116,0.51178 l -2.92308,2.92307 V 481.92308 496 l -16.75,0.19531 c -9.2125,0.10742 -20.125,0.17775 -24.25,0.15629 l -7.5,-0.039 -0.30607,-4.12712 c -0.92225,-12.4357 4.56,-24.95642 15.33205,-35.01632 l 7.47402,-6.97991 0.0119,-5.84461 c 0.0306,-15.08754 8.3933,-29.96906 20.20443,-35.95422 l 4.7966,-2.43062 19.24355,19.63827 19.24355,19.63826 0.58049,9.53766 c 0.53537,8.7964 0.79229,9.71986 3.30576,11.88185 3.42146,2.94302 8.43815,3.05676 11.97889,0.27161 2.60781,-2.0513 2.63486,-2.2076 2.63486,-15.22138 v -13.14881 l -22.14348,-22.22349 -22.14348,-22.22349 0.64923,-4.80513 c 0.35708,-2.64281 1.46982,-5.91286 2.47277,-7.26677 2.7448,-3.70529 29.39092,-16.94223 36.72754,-18.24506 13.7256,-2.43739 23.95241,2.88617 26.47995,13.7841 0.50037,2.15744 0.92049,29.68511 0.93362,61.17261 l 0.0238,57.25 -9.25,0.21401 c -5.0875,0.1177 -11.28036,0.11461 -13.76191,-0.007 -4.46804,-0.21874 -4.60663,-0.1258 -14.25551,9.55942 l -9.7436,9.7803 6.28342,6.22757 6.28341,6.22756 6.44321,-6.50099 6.44323,-6.5009 h 10.77888 10.77889 l -0.006,50.75 c -0.003,30.42189 -0.40231,52.17812 -0.99602,54.31535 -1.45643,5.24276 -7.27178,11.43204 -13.69332,14.57381 -4.59864,2.24991 -7.23198,2.81053 -14.22424,3.02829 -4.91156,0.15295 -10.50754,-0.28927 -13.08654,-1.03418 z"
         id="path3" />
      <path
         style="fill:#0dbbd5"
         d="m 258.7989,701.60931 c -7.11522,-2.30795 -10.21046,-4.87867 -30.76631,-25.55261 L 208.09046,656 h -6.88155 c -8.46634,0 -19.36773,-3.44689 -27.74325,-8.77207 -6.66222,-4.23587 -47.68271,-42.43929 -52.06631,-48.49068 -4.33664,-5.98656 -6.98263,-14.17834 -7.65324,-23.69383 L 113.144,566.5 l -6.12466,-6 c -7.125045,-6.98002 -11.595831,-15.36728 -14.66863,-27.51855 -1.862694,-7.36595 -2.019341,-10.39021 -1.647693,-31.81063 0.389059,-22.424 0.548165,-24.05718 3.020606,-31.00574 3.224039,-9.06087 7.509257,-16.23275 14.239037,-23.83092 4.5467,-5.13338 5.29659,-6.61491 6.24304,-12.33416 2.22679,-13.45608 8.88809,-25.87583 18.52612,-34.54125 C 137.77954,394.92042 146.10438,390 148.73504,390 c 0.80497,0 1.7898,-2.20732 2.50399,-5.61221 2.04427,-9.74614 5.20196,-13.77604 16.5817,-21.16186 12.96918,-8.41743 23.44766,-13.6298 31.62668,-15.73226 7.38199,-1.89757 21.37691,-2.21865 28.02731,-0.643 l 4.5,1.06616 25,-24.88235 c 20.73451,-20.63693 25.59717,-24.98911 28.5,-25.50805 1.925,-0.34413 26.45,-0.49086 54.5,-0.32606 l 51,0.29963 5.70236,2.80008 c 7.15804,3.51488 14.03047,11.03353 16.7645,18.34087 1.14089,3.04932 5.03576,15.29005 8.65525,27.20163 3.61949,11.91158 9.57272,31.10742 13.22939,42.65742 l 6.6485,21 V 469 c 0,47.3595 -0.27509,60.27792 -1.3482,63.31257 -0.98676,2.79045 -9.02432,11.63746 -29.98069,33 -36.84618,37.56032 -59.46624,60.73636 -97.32588,99.71803 -21.20074,21.82908 -32.12324,32.34712 -35.49882,34.18435 -6.03441,3.28433 -13.41463,4.2133 -19.02223,2.39436 z m 24.60773,-32.15317 c 11.75597,-11.73642 13.98899,-14.39062 11.56809,-13.75 -5.07425,1.34275 -18.80738,0.68127 -24.58517,-1.18418 -7.58747,-2.44974 -16.79227,-7.72148 -20.86667,-11.95068 l -3.45184,-3.58299 -3.54816,3.45978 c -1.95149,1.90287 -5.88635,4.73695 -8.74413,6.29795 l -5.19598,2.83817 16.07651,15.45791 c 8.84209,8.50184 16.80528,15.76377 17.69598,16.13761 4.76136,1.99843 6.32276,0.98054 21.05137,-13.72357 z m -61.62682,-34.81698 c 6.42154,-3.14177 12.23689,-9.33105 13.69332,-14.57381 0.59371,-2.13723 0.99267,-23.89346 0.99602,-54.31535 l 0.006,-50.75 h -10.77889 -10.77888 l -6.44321,6.50099 -6.44321,6.50099 -6.28341,-6.22756 -6.28342,-6.22757 9.7436,-9.7803 c 9.64888,-9.68522 9.78747,-9.77816 14.25551,-9.55942 2.48155,0.12149 8.67441,0.12458 13.76191,0.007 l 9.25,-0.21401 -0.0238,-57.25 c -0.0131,-31.4875 -0.43325,-59.01517 -0.93362,-61.17261 -2.52754,-10.89793 -12.75435,-16.22149 -26.47995,-13.7841 -7.33662,1.30283 -33.98274,14.53977 -36.72754,18.24506 -1.00295,1.35391 -2.11569,4.62396 -2.47277,7.26677 l -0.64923,4.80513 22.14348,22.22349 22.14348,22.22349 v 13.14881 c 0,13.01378 -0.0271,13.17008 -2.63486,15.22138 -3.54074,2.78515 -8.55743,2.67141 -11.97889,-0.27161 -2.51347,-2.16199 -2.77039,-3.08545 -3.30576,-11.88185 l -0.58049,-9.53766 -19.24355,-19.63826 -19.24355,-19.63827 -4.7966,2.43062 c -11.81113,5.98516 -20.17379,20.86668 -20.20443,35.95422 l -0.0119,5.84461 -7.47402,6.97991 c -10.77205,10.0599 -16.2543,22.58062 -15.33205,35.01632 l 0.30607,4.12712 7.5,0.039 c 4.125,0.0215 15.0375,-0.0489 24.25,-0.15629 L 157.47472,496 v -14.07692 -14.07693 l 2.92308,-2.92307 c 3.66332,-3.66333 7.89021,-3.8471 11.77116,-0.51178 l 2.80576,2.4113 0.29042,18.3387 0.29043,18.3387 -6.47091,5.75 -6.47091,5.75 h -27.06952 -27.06951 v 3.95078 c 0,9.23343 3.89735,20.20848 9.5704,26.95051 4.55776,5.4166 9.13694,7.09871 19.32466,7.09871 4.93611,0 10.24154,-0.47445 11.78984,-1.05433 1.54831,-0.57988 5.55637,-3.75878 8.90681,-7.06422 l 6.0917,-6.00989 6.12047,6.31422 6.12047,6.31422 -8.69133,8.75 -8.69132,8.75 h -12.18906 c -6.70398,0 -12.90087,0.27314 -13.77085,0.60699 -1.90658,0.73162 -2.09345,5.82984 -0.43167,11.77699 0.93807,3.35718 3.93396,6.83282 16.25,18.85221 l 15.09988,14.73619 15.75,-15.72447 15.75,-15.72447 V 572.1848 c 0,-11.19885 0.036,-11.37468 2.92308,-14.26172 1.995,-1.995 3.92443,-2.92308 6.07692,-2.92308 2.1525,0 4.08193,0.92808 6.07693,2.92308 l 2.92307,2.92307 v 15.26551 15.2655 l -18.12412,18.22052 -18.12412,18.22052 3.87412,2.43328 c 10.04792,6.31095 15.23619,7.76534 26.45497,7.41597 6.99226,-0.21776 9.6256,-0.77838 14.22424,-3.02829 z m 80.97722,0.42837 c 12.11689,-4.68431 18.71769,-11.98961 18.71769,-20.71541 V 609 h -11.87755 c -9.85628,0 -12.11112,-0.28289 -13.25,-1.66234 -1.93674,-2.34582 -1.91427,-29.37742 0.0264,-31.71574 1.80984,-2.18073 11.79586,-2.2245 14.87868,-0.0652 1.93381,1.3545 2.2225,2.45862 2.2225,8.5 V 591 l 10.75,-0.0439 c 11.77627,-0.0481 15.94776,-1.09832 21.65606,-5.45225 5.86191,-4.4711 7.25972,-8.31904 7.82069,-21.5291 0.59191,-13.93843 1.3743,-15.74083 11.28477,-25.997 4.69166,-4.8553 7.71642,-8.93251 8.53151,-11.5 1.72192,-5.42389 2.42868,-33.8886 1.01099,-40.71754 -1.76445,-8.49935 -6.29342,-16.87397 -13.00605,-24.04979 l -6.19378,-6.62117 -0.96264,-10.23077 c -1.10988,-11.79567 -3.16253,-17.23201 -8.35611,-22.13074 C 340.97342,417.97695 336.81141,417 321.6087,417 h -13.13398 l -0.0238,6.25 c -0.0444,11.62756 -0.75895,13.02169 -12.89418,25.15692 -10.48779,10.48779 -11.25638,11.04763 -15.16713,11.04763 -3.38351,0 -4.63721,-0.57942 -7.01717,-3.24305 -4.72464,-5.28779 -4.0483,-7.25528 6.16732,-17.941 4.98574,-5.21518 9.48574,-10.58882 10,-11.94142 0.51426,-1.3526 0.93501,-7.34784 0.93501,-13.32275 0,-14.1268 -0.11673,-14.00633 13.57143,-14.00633 h 10.42857 v -4.13398 c 0,-10.10551 -6.09467,-18.97286 -17.0558,-24.81508 -15.22495,-8.11481 -30.5521,-8.14893 -39.02708,-0.0869 -2.83089,2.69296 -3.87449,4.61398 -4.3663,8.03735 -0.35545,2.47423 -0.5123,57.89747 -0.34855,123.16277 l 0.29773,118.66418 3.03166,4.33582 c 3.55131,5.07903 10.8047,10.23599 17.33851,12.32721 6.74614,2.15918 20.99042,1.44533 28.41214,-1.42386 z M 285.26209,532.25375 c -7.63008,-7.56043 -14.12961,-14.76917 -14.4434,-16.01941 C 269.47945,510.89839 274.59832,505 280.56831,505 c 2.6285,0 4.67037,1.47411 12.06523,8.71037 l 8.90127,8.71037 19.21996,-19.16226 c 10.57097,-10.53925 20.40497,-19.60282 21.85332,-20.14128 5.64916,-2.1002 12.86221,4.67682 11.39539,10.70653 C 353.0104,497.90604 304.64484,546 301.53256,546 c -1.74106,0 -6.1965,-3.76422 -16.27047,-13.74625 z m 137.28838,-6.95298 c 0.52486,-1.38048 0.92425,-26.11476 0.92425,-57.23848 v -54.8075 l -3.91471,-12.3774 C 417.40692,394.06983 411.75343,375.45 406.9967,359.5 c -4.75673,-15.95 -9.49315,-30.86903 -10.52536,-33.1534 -1.03222,-2.28437 -3.55575,-5.43437 -5.60786,-7 l -3.7311,-2.8466 -46.57883,-0.28721 c -25.61836,-0.15797 -47.49564,-0.0609 -48.6162,0.21568 -1.12055,0.2766 -9.22055,7.52843 -18,16.11518 -8.77944,8.58676 -15.06263,15.32108 -13.96263,14.96517 12.49152,-4.04171 27.93649,-2.76877 41.09008,3.38654 20.13099,9.42042 30.3849,22.31424 32.20137,40.49174 l 0.70855,7.09054 4.71953,0.67392 c 19.02723,2.71699 33.7369,21.75581 33.77468,43.71478 0.005,2.68637 1.10798,4.55684 5.46235,9.26008 6.26838,6.77059 13.06879,19.73274 14.54159,27.71746 0.54213,2.93914 1.01177,13.96414 1.04365,24.5 0.0799,26.40133 -2.03368,33.02008 -14.96639,46.8683 l -7.07541,7.57627 0.042,9.85578 0.042,9.85577 25.03378,-25.38413 c 13.76858,-13.96127 25.44969,-26.47807 25.95803,-27.8151 z M 356.5902,380.55765 c -9.18799,-2.98844 -15.05626,-11.677 -15.09352,-22.34749 -0.0345,-9.89099 4.60974,-17.23874 13.47804,-21.32373 4.76521,-2.19498 13.24438,-2.4379 17.85485,-0.51153 4.8807,2.03929 10.71502,7.57064 12.78017,12.11652 3.58827,7.89863 1.56166,19.90943 -4.44709,26.3559 -5.47313,5.87184 -16.32351,8.39333 -24.57245,5.71033 z m 13.32782,-17.78016 c 2.23913,-3.1968 1.92058,-6.50452 -0.89784,-9.32294 -2.99863,-2.99864 -5.45043,-3.10374 -8.9106,-0.38197 -3.03205,2.38501 -3.46644,6.29515 -1.07815,9.70491 1.1546,1.64843 2.56062,2.22251 5.44329,2.22251 2.88268,0 4.2887,-0.57408 5.4433,-2.22251 z m 277.0567,281.87731 c -12.52694,-3.26391 -21.21127,-11.54002 -22.6514,-21.58665 -0.34604,-2.41402 -0.28395,-2.43236 8.4667,-2.5 8.35266,-0.0646 8.87747,0.0583 10,2.34192 2.86768,5.83377 12.99422,8.79303 21.02265,6.14341 6.84635,-2.2595 11.64343,-10.28061 11.65648,-19.49057 l 0.006,-3.93709 -2.75,2.57293 c -5.18279,4.84907 -9.14918,6.25182 -17.75,6.27743 -6.44016,0.0192 -8.94387,-0.44085 -12.84085,-2.35937 C 635.944,609.0695 630.10823,602.98464 626.67678,596 c -2.43898,-4.96452 -2.70206,-6.57097 -2.70206,-16.5 0,-10.00435 0.25161,-11.51236 2.77978,-16.66054 3.05515,-6.22127 8.3136,-11.51983 14.92516,-15.03898 3.55639,-1.89296 5.84291,-2.28672 13.29506,-2.2895 9.41029,-0.004 13.25701,1.21484 18.25,5.78031 l 2.25,2.05734 V 549.67431 546 h 8.05518 8.05518 l -0.30518,37.75 c -0.29863,36.93958 -0.35451,37.85734 -2.60302,42.75 -5.09889,11.09495 -15.95027,18.11686 -29.33322,18.98148 -4.41427,0.28518 -9.37375,-0.0463 -12.36894,-0.82668 z m 17.82881,-47.01883 c 13.11382,-5.4793 14.04767,-28.60974 1.42546,-35.30685 -4.74595,-2.51811 -13.87464,-2.37193 -17.45326,0.27949 -6.58813,4.88118 -9.68333,14.54412 -7.38854,23.06633 2.89702,10.75869 13.42426,16.13599 23.41634,11.96103 z m -98.45794,18.79936 c -10.89979,-3.35617 -16.77422,-16.56951 -11.975,-26.93533 3.87464,-8.36883 8.95357,-11.24416 25.69763,-14.54819 11.46439,-2.26221 14.4065,-3.79898 14.4065,-7.52501 0,-3.61277 -1.04383,-5.39811 -4.07152,-6.96379 -6.52245,-3.37289 -16.05729,-0.79231 -18.47789,5.001 L 570.44788,569 h -8.55397 c -9.6482,0 -9.17997,0.70631 -5.78843,-8.73165 1.99649,-5.55584 9.14342,-11.82684 15.6968,-13.77298 6.51803,-1.93565 19.20838,-1.9232 24.72805,0.0243 5.98497,2.11162 10.56681,5.85531 13.20362,10.78831 2.13809,3.99996 2.25492,5.44085 2.54955,31.44207 l 0.30878,27.25 h -8.05878 -8.05878 v -3.5 c 0,-4.24862 -0.64546,-4.31517 -4.43196,-0.45693 -5.29755,5.39794 -16.31514,7.2811 -25.69717,4.39226 z m 22.87366,-15.58646 c 4.13553,-2.55589 6.25547,-7.08079 6.25547,-13.35194 0,-4.03974 -0.20214,-4.45917 -1.75,-3.63122 -0.9625,0.51484 -4.675,1.50633 -8.25,2.2033 -12.03321,2.34597 -15,4.49786 -15,10.87995 0,6.75759 10.56432,8.95556 18.74453,3.89991 z M 516.45718,615.75 c -0.01,-0.1375 -0.17962,-16.675 -0.37772,-36.75 -0.1981,-20.075 -0.4152,-38.1748 -0.48246,-40.22178 l -0.12228,-3.72178 -13.75,-0.27822 -13.75,-0.27822 -0.29044,-8.25 -0.29044,-8.25 h 37.04044 37.04044 v 8.5 8.5 h -14 -14 v 40.5 40.5 h -8.5 c -4.675,0 -8.50789,-0.1125 -8.51754,-0.25 z M 696.81824,493.64025 c -9.97054,-2.53637 -18.06972,-9.47849 -22.66667,-19.42849 -1.83667,-3.97546 -2.17672,-6.50884 -2.17601,-16.21176 7.5e-4,-10.32668 0.26733,-12.06115 2.6128,-17 5.37998,-11.32859 15.35288,-18.02537 27.97134,-18.78266 21.1948,-1.27199 35.91502,12.64864 35.91502,33.96416 V 462 h -24.63084 -24.63084 l 0.58305,3.59296 c 0.75836,4.67321 5.06895,10.25435 9.27834,12.01315 6.73649,2.81468 15.78896,1.30447 20.83545,-3.47595 3.00513,-2.84669 3.19918,-2.88639 9.96031,-2.03791 3.79251,0.47594 7.13566,1.10554 7.42922,1.39911 0.91643,0.91643 -2.59045,7.2436 -6.27572,11.32275 -7.09233,7.85037 -22.45664,11.81487 -34.20545,8.82614 z m 22.48141,-48.7908 c -5.79439,-10.34438 -21.68251,-10.69182 -27.83033,-0.60859 -1.09292,1.79253 -1.9888,3.59664 -1.99086,4.00914 -0.002,0.4125 7.22998,0.75 16.07119,0.75 h 16.07492 z m 171.30681,49.12308 c -10.78763,-2.24387 -20.26193,-9.74998 -24.96156,-19.77603 -2.34727,-5.00763 -2.66591,-6.90579 -2.6349,-15.6965 0.0438,-12.41112 2.36403,-19.03969 9.03208,-25.80328 12.20557,-12.38045 31.75198,-14.34126 46.27636,-4.64225 10.27002,6.85806 15.32416,16.88207 15.39923,30.54172 0.0369,6.7207 -0.41141,9.09203 -2.63904,13.95781 -3.49265,7.62895 -6.6914,11.73301 -11.88389,15.24727 -8.46681,5.7303 -19.38123,8.08636 -28.58828,6.17126 z m 17.72643,-18.69998 c 11.21861,-8.30808 10.08401,-29.1801 -1.9191,-35.30364 -11.81649,-6.02832 -25.22029,1.66673 -26.62591,15.28578 -1.5324,14.84756 8.39514,25.04832 22.04501,22.65171 2.12199,-0.37258 5.04699,-1.55781 6.5,-2.63385 z M 487.47472,443.96725 V 394.9345 l 11.22989,0.28275 11.22988,0.28275 4.77613,12.5 c 2.62687,6.875 8.46147,22.58588 12.96576,34.91307 4.5043,12.32718 8.34106,22.00218 8.52614,21.5 C 536.3876,463.91088 542.30485,448.2 549.35196,429.5 l 12.81293,-34 11.15492,-0.28275 11.15491,-0.28275 V 443.96725 493 h -8.5 -8.5 l -0.0677,-33.75 c -0.0423,-21.08685 -0.40849,-32.99959 -0.97603,-31.75 -0.49959,1.1 -5.83631,15.5 -11.85937,32 -6.02307,16.5 -11.2644,30.80679 -11.64742,31.79288 -0.58869,1.51561 -1.70997,1.74758 -7.25056,1.5 L 529.11949,492.5 526.3738,485 c -1.51013,-4.125 -7.04258,-19.2 -12.29434,-33.5 l -9.54865,-26 -0.028,33.75 -0.0281,33.75 h -8.5 -8.5 z m 111,14.03275 v -35 h 8.5 8.5 v 4.04047 4.04047 l 2.75,-2.60592 c 4.10844,-3.89319 7.87773,-5.5811 13.83658,-6.19611 11.02528,-1.13791 20.89447,4.64133 25.50177,14.93341 2.24884,5.0236 2.38506,6.54871 2.72763,30.53768 l 0.36057,25.25 h -8.58827 -8.58828 l -0.006,-20.25 c -0.006,-21.96718 -0.67918,-26.24642 -4.86554,-30.93178 -3.8534,-4.31271 -11.07236,-5.04558 -16.12889,-1.6374 -6.48759,4.37273 -6.9967,6.63287 -6.99844,31.06918 l -0.002,21.75 h -8.5 -8.5 z m 151,0 v -35 h 8.5 8.5 v 4.07792 4.07793 l 3.99243,-3.41737 c 9.16855,-7.84794 22.16891,-7.74978 31.24112,0.2359 l 4.48822,3.95069 2.38912,-2.59488 c 3.60522,-3.91573 11.61214,-7.3091 17.27309,-7.32042 7.66955,-0.0153 12.62813,1.9491 17.722,7.02092 7.21428,7.18304 7.91765,10.45538 8.46592,39.38699 L 852.51248,493 h -8.51888 -8.51888 l -0.022,-21.75 c -0.019,-18.86828 -0.26304,-22.27997 -1.84152,-25.75 -2.31905,-5.09803 -4.12492,-6.55463 -8.92448,-7.19839 -2.73654,-0.36704 -5.04892,0.0847 -7.91301,1.54584 -6.61171,3.37304 -7.29903,6.35553 -7.29903,31.67279 V 493 h -8.5 -8.5 v -23.04966 c 0,-25.37382 -0.43068,-27.57033 -5.96726,-30.43341 -6.54759,-3.38589 -14.78503,-0.45566 -18.28118,6.503 -1.50417,2.99387 -1.74867,6.51879 -1.75,25.23007 l -0.002,21.75 h -8.5 -8.5 z"
         id="path2" />
    </g>
  </g>
</svg>
